<svg version="1.1" id="Layer_1" xmlns="http://www.w3.org/2000/svg" xmlns:xlink="http://www.w3.org/1999/xlink" x="0px" y="0px"
	 width="100%" viewBox="0 0 1024 1024" enable-background="new 0 0 1024 1024" xml:space="preserve">
<path fill="#000000" opacity="1.000000" stroke="none" 
	d="
M367.000122,175.898071 
	C467.823212,175.908890 568.148376,175.543732 668.468811,176.073868 
	C731.730835,176.408157 779.135559,204.878723 809.829956,260.287201 
	C819.959045,278.571930 825.419922,298.598175 826.214661,319.490082 
	C828.527344,380.282928 826.727783,441.107361 826.927734,501.917725 
	C827.083374,549.238464 826.632935,596.562195 826.268616,643.883179 
	C826.129150,661.993958 820.808960,679.004639 813.855713,695.508484 
	C811.141785,701.950073 803.682434,703.108887 797.939148,698.160828 
	C794.161011,694.905762 790.775391,691.193542 787.232300,687.667603 
	C778.609253,679.086426 770.012878,670.478333 761.372620,661.914551 
	C757.793152,658.366882 755.651611,654.344971 755.664490,649.098633 
	C755.856140,571.273987 755.740356,493.447571 756.235901,415.625031 
	C756.409851,388.301178 756.607727,360.975800 756.665222,333.651184 
	C756.718323,308.397552 747.118896,287.213654 728.394409,270.427338 
	C713.466858,257.044983 695.834412,249.963379 675.578613,249.969971 
	C567.256592,250.005157 458.933929,250.257004 350.612885,249.942719 
	C310.477783,249.826279 274.335968,282.617889 270.061493,321.917267 
	C269.610077,326.067505 269.205322,330.193298 269.206909,334.362091 
	C269.245697,437.018311 269.223572,539.674561 269.352325,642.330688 
	C269.402405,682.268738 295.300659,717.657898 333.219116,730.075867 
	C341.835449,732.897644 350.711792,733.963257 359.787811,733.944763 
	C398.950348,733.864746 438.113159,733.903015 477.275848,733.908081 
	C479.273712,733.908386 481.293213,733.830200 483.265442,734.081116 
	C489.834320,734.916565 493.808746,738.619446 493.910767,745.232056 
	C494.175476,762.391357 494.188446,779.561340 493.879486,796.719421 
	C493.759399,803.388428 489.140137,807.295227 482.354706,807.301331 
	C439.359253,807.339905 396.320892,808.495544 353.379517,806.962585 
	C304.449890,805.215881 264.921539,783.064453 234.728699,744.776611 
	C212.967697,717.181335 201.737411,685.420776 199.520050,650.323364 
	C198.709137,637.487793 199.002609,624.678223 198.992676,611.860107 
	C198.920975,519.369446 198.775681,426.878357 199.021881,334.388397 
	C199.165863,280.304230 220.732758,236.556747 264.587982,204.530151 
	C287.553467,187.758926 313.586639,178.714539 342.036926,176.588776 
	C350.199402,175.978882 358.345764,176.096649 367.000122,175.898071 
z"/>
<path fill="#000000" opacity="1.000000" stroke="none" 
	d="
M322.707336,624.000000 
	C322.713257,531.346558 322.705444,439.193115 322.737762,347.039673 
	C322.744019,329.168884 333.144409,315.174530 349.607971,311.256775 
	C363.783234,307.883575 375.936279,312.181152 386.084595,322.285065 
	C412.654053,348.738312 439.166260,375.249298 465.645386,401.792969 
	C514.366150,450.632507 563.050720,499.508240 611.737976,548.381104 
	C616.204773,552.864929 620.559326,557.460388 625.015747,561.954712 
	C626.512695,563.464355 627.995178,565.079529 630.336548,565.626709 
	C632.709351,563.593140 631.848755,560.923950 631.851929,558.602783 
	C631.947693,488.446442 631.984741,418.290039 632.026184,348.133636 
	C632.034851,333.506500 637.481079,321.774872 650.637573,314.579346 
	C674.465576,301.547272 703.097778,318.677704 703.185974,346.124207 
	C703.332092,391.617126 703.182312,437.110992 703.166931,482.604462 
	C703.149658,533.763733 703.195312,584.923157 703.042114,636.082031 
	C703.028442,640.635620 704.455383,643.805847 707.649597,646.991211 
	C746.349854,685.584717 784.919006,724.309631 823.525024,762.997620 
	C831.859680,771.350037 834.323792,781.966248 830.185486,791.765869 
	C825.864807,801.997253 817.328979,807.315613 805.176392,807.326294 
	C794.011353,807.336121 782.846191,807.352112 771.681213,807.322754 
	C763.078796,807.300110 755.779785,804.267761 749.928040,797.849731 
	C710.286987,754.372131 668.560730,712.905273 627.409851,670.884766 
	C582.059265,624.575867 536.644653,578.329590 491.232086,532.081360 
	C462.630402,502.953369 433.996277,473.857147 405.331665,444.791107 
	C402.217712,441.633545 399.697968,437.802887 395.735657,435.489807 
	C393.298309,437.037628 393.462433,439.341339 393.475586,441.394409 
	C393.572693,456.543121 393.656342,471.687012 393.554352,486.840149 
	C393.309845,523.160156 393.792480,559.484497 393.848389,595.807312 
	C393.872498,611.465820 393.643433,627.126099 393.391418,642.783386 
	C393.080231,662.118164 377.074036,677.377502 357.307312,677.338684 
	C338.397003,677.301575 322.936401,661.748291 322.717712,642.490051 
	C322.649628,636.494141 322.707458,630.496704 322.707336,624.000000 
z"/>
<path fill="#000000" opacity="1.000000" stroke="none" 
	d="
M538.687256,757.004517 
	C538.687561,754.007629 538.686890,751.509705 538.688904,749.011719 
	C538.698364,737.418762 542.181030,733.948914 553.984375,733.936523 
	C578.963928,733.910278 603.943481,733.902771 628.922913,733.955627 
	C631.735474,733.961609 634.565796,734.273865 637.355225,734.672668 
	C643.161804,735.502747 647.839478,738.228516 651.923218,742.575256 
	C665.604126,757.137390 679.528809,771.470398 693.346008,785.904663 
	C694.841003,787.466431 696.422668,788.990784 697.657593,790.747925 
	C702.370117,797.453186 698.890747,805.805542 690.848083,807.132202 
	C689.057922,807.427551 687.194885,807.330505 685.365417,807.330872 
	C641.234863,807.339966 597.104309,807.342102 552.973755,807.334473 
	C542.087219,807.332581 538.705322,803.924072 538.693420,792.974487 
	C538.680542,781.150757 538.688599,769.327087 538.687256,757.004517 
z"/>
</svg>